# xmcd CD database file
#
# Track frame offsets:
#	150
#	11775
#	26475
#	40499
#	52798
#	63822
#	74622
#	85796
#	101246
#	113921
#	125471
#	137021
#	147146
#	158846
#	173695
#	184495
#	196645
#	209620
#	220269
#	233244
#	247869
#	266842
#	280866
#	294815
#	310715
#	327964
#	341388
#
# Disc length: 4743 seconds
#
# Revision: 0
# Processed by: cddbd v1.5.1PL0 Copyright (c) Steve Scherf et al.
# Submitted via: CDex 1.51
#
DISCID=8912851b
DTITLE=María Dolores Pradera - María Dolores Pradera
DYEAR=1900
DGENRE=
TTITLE0=Amarraditos
TTITLE1=Negra María
TTITLE2=La Flor De La Canela
TTITLE3=Pa' Todo El Año
TTITLE4=El Rosario De Mi Madre
TTITLE5=Fina Estampa
TTITLE6=Cuando Llora Mi Guitarra
TTITLE7=Paso De Vencedores
TTITLE8=Volver, Volver
TTITLE9=El Rey
TTITLE10=Cuando Vivas Conmigo
TTITLE11=Amanecí En Tus Brazos
TTITLE12=Corazón
TTITLE13=Llegando A Ti (Poco A Poco)
TTITLE14=Seis Años
TTITLE15=Que Nadie Sepa Mi Sufrir
TTITLE16=No Me Amenaces
TTITLE17=El Tiempo Que Te Quede Libre
TTITLE18=Sabes De Qué Tengo Ganas
TTITLE19=Te Solté La Rienda
TTITLE20=María Dolores (Con Los Sabandeños)
TTITLE21=La Canción Y El Poema
TTITLE22=Caballo Viejo
TTITLE23=No Te Mires En El Río
TTITLE24=Cu-cu-rru-cu-cu Paloma (Con Paloma San Basilio)
TTITLE25=Nana Del Cabrerillo
TTITLE26=Ay, Cómo Quisiera Ser
EXTD=YEAR: 1900
EXTT0=
EXTT1=
EXTT2=
EXTT3=
EXTT4=
EXTT5=
EXTT6=
EXTT7=
EXTT8=
EXTT9=
EXTT10=
EXTT11=
EXTT12=
EXTT13=
EXTT14=
EXTT15=
EXTT16=
EXTT17=
EXTT18=
EXTT19=
EXTT20=
EXTT21=
EXTT22=
EXTT23=
EXTT24=
EXTT25=
EXTT26=
PLAYORDER=
